<?xml version="1.0" standalone="no"?>
<!DOCTYPE svg PUBLIC "-//W3C//DTD SVG 20010904//EN"
 "http://www.w3.org/TR/2001/REC-SVG-20010904/DTD/svg10.dtd">
<svg version="1.0" xmlns="http://www.w3.org/2000/svg"
 width="736.000000pt" height="1306.000000pt" viewBox="0 0 736.000000 1306.000000"
 preserveAspectRatio="xMidYMid meet">

<g transform="translate(0.000000,1306.000000) scale(0.100000,-0.100000)"
fill="#000000" stroke="none">
<path d="M2136 9064 c-153 -34 -226 -105 -226 -218 0 -25 -9 -69 -21 -98 -11
-29 -27 -86 -35 -127 -11 -55 -22 -82 -44 -108 -17 -18 -30 -35 -30 -36 0 -1
-16 -81 -35 -177 -69 -344 -87 -412 -124 -483 -20 -38 -47 -89 -60 -114 -19
-37 -26 -69 -31 -157 -10 -144 -38 -256 -105 -426 -55 -139 -97 -278 -110
-360 -4 -25 -20 -61 -35 -80 -46 -59 -59 -94 -105 -280 -40 -160 -45 -193 -45
-293 0 -98 3 -119 25 -166 50 -106 24 -85 670 -545 248 -176 428 -324 610
-501 161 -157 292 -252 500 -361 61 -32 112 -61 115 -64 3 -4 18 -10 33 -14
16 -4 52 -18 80 -31 28 -14 57 -25 64 -25 7 0 59 -18 116 -41 273 -109 714
-252 877 -284 19 -4 40 -10 45 -13 6 -4 37 -7 70 -8 34 -1 61 -6 63 -13 2 -6
19 -11 38 -11 46 0 178 -23 184 -32 13 -17 180 -23 525 -17 361 6 374 6 524
36 84 17 156 35 160 41 3 5 38 19 76 32 84 27 200 87 249 127 68 56 76 87 76
308 0 192 0 196 -25 233 -17 27 -28 62 -35 117 -34 270 -211 539 -480 730 -63
45 -106 81 -204 173 -64 60 -70 69 -78 120 -10 65 -28 102 -78 163 -21 25 -45
62 -53 82 -22 51 -87 117 -149 151 -42 23 -58 39 -76 78 -17 34 -44 65 -93
104 -49 39 -69 61 -69 78 0 64 -50 148 -115 191 -24 17 -45 36 -45 44 0 32
-42 99 -91 146 -125 121 -119 112 -119 165 0 76 -35 156 -97 221 -47 50 -53
60 -53 100 0 24 -10 64 -22 89 -11 25 -22 69 -23 97 -2 31 -11 67 -23 87 l-21
35 35 68 c29 56 37 84 41 149 3 49 1 94 -6 116 -9 28 -8 43 5 79 44 123 66
380 45 516 -28 177 -95 255 -253 297 -29 8 -83 30 -119 49 -53 28 -85 37 -169
47 -130 16 -288 8 -395 -20 -158 -41 -278 -37 -740 27 -165 22 -502 27 -589 7z
m1307 -189 c26 -54 23 -60 -36 -63 -78 -4 -283 -40 -356 -62 l-64 -19 -38 27
c-21 15 -39 30 -39 34 0 9 100 46 186 68 62 16 144 30 259 43 69 9 71 8 88
-28z m46 -151 c7 -36 12 -118 12 -181 0 -103 1 -114 16 -109 35 14 426 7 507
-9 44 -8 83 -18 87 -22 11 -13 30 -162 36 -294 l6 -126 -45 -31 c-57 -39 -147
-84 -223 -111 l-61 -22 -169 46 c-136 37 -351 102 -362 109 -10 7 -42 206 -41
256 1 64 -1 70 -87 235 -49 94 -101 186 -117 205 -15 19 -24 37 -20 41 11 11
229 57 317 67 144 17 131 21 144 -54z m-558 -191 c13 -16 12 -17 -3 -4 -10 7
-18 15 -18 17 0 8 8 3 21 -13z m59 -73 c6 -11 8 -20 6 -20 -3 0 -10 9 -16 20
-6 11 -8 20 -6 20 3 0 10 -9 16 -20z m67 -192 c-3 -8 -6 -5 -6 6 -1 11 2 17 5
13 3 -3 4 -12 1 -19z m10 -50 c-3 -7 -5 -2 -5 12 0 14 2 19 5 13 2 -7 2 -19 0
-25z m10 -70 c-3 -8 -6 -5 -6 6 -1 11 2 17 5 13 3 -3 4 -12 1 -19z m10 -75
c-3 -10 -5 -2 -5 17 0 19 2 27 5 18 2 -10 2 -26 0 -35z m130 -55 c-3 -8 -6 -5
-6 6 -1 11 2 17 5 13 3 -3 4 -12 1 -19z m-430 -225 c-3 -10 -5 -4 -5 12 0 17
2 24 5 18 2 -7 2 -21 0 -30z m-1002 -230 c43 -95 72 -130 134 -160 53 -26 64
-28 186 -27 124 0 139 3 327 52 108 29 199 52 202 52 3 0 6 -23 6 -50 0 -88
42 -156 125 -205 22 -13 92 -37 156 -54 191 -50 284 -102 339 -188 29 -45 30
-52 30 -159 0 -197 40 -332 129 -439 22 -27 41 -53 41 -58 0 -13 -140 -175
-255 -295 -190 -199 -335 -365 -429 -495 -28 -37 -54 -67 -58 -67 -5 0 -90 80
-191 178 -173 169 -369 342 -522 462 -123 96 -116 85 -122 191 -5 88 13 424
24 442 3 4 28 -23 56 -60 60 -81 132 -167 203 -243 28 -30 68 -74 88 -97 59
-67 168 -151 253 -195 73 -38 82 -40 144 -36 83 6 150 41 218 113 155 164 184
430 76 697 -31 75 -59 108 -95 108 -37 0 -55 -24 -76 -100 -25 -95 -90 -240
-121 -272 -33 -34 -85 -37 -143 -8 -92 47 -392 329 -612 575 -133 148 -188
285 -188 465 0 109 12 116 31 18 10 -48 29 -113 44 -145z m1385 197 c-6 -11
-13 -20 -16 -20 -2 0 0 9 6 20 6 11 13 20 16 20 2 0 0 -9 -6 -20z m143 -12
c69 -25 62 -31 -47 -46 l-65 -8 22 38 c12 21 24 38 26 38 2 0 31 -10 64 -22z
m-548 -64 c-22 -76 -27 -65 -7 14 9 34 18 58 20 53 2 -6 -4 -36 -13 -67z m373
26 c-7 -11 -17 -20 -22 -20 -5 0 -1 9 9 20 10 11 20 20 22 20 2 0 -2 -9 -9
-20z m-427 -157 c-11 -21 -20 -35 -21 -31 0 12 33 78 38 74 2 -2 -6 -21 -17
-43z m1227 17 l52 -12 0 -51 0 -52 -52 -14 c-49 -13 -202 -16 -220 -5 -5 3 -8
34 -8 68 l0 63 43 11 c46 12 104 9 185 -8z m-1932 -22 c-9 -12 -16 -19 -16
-15 0 11 24 47 28 42 2 -2 -3 -14 -12 -27z m-19 -85 c-3 -10 -5 -2 -5 17 0 19
2 27 5 18 2 -10 2 -26 0 -35z m700 5 c-3 -7 -5 -2 -5 12 0 14 2 19 5 13 2 -7
2 -19 0 -25z m991 -15 c-2 -10 -7 -17 -11 -15 -4 1 -20 2 -37 2 -35 0 -40 17
-7 23 48 9 59 7 55 -10z m-991 -55 c-2 -13 -4 -5 -4 17 -1 22 1 32 4 23 2 -10
2 -28 0 -40z m-1060 -40 c-3 -7 -5 -2 -5 12 0 14 2 19 5 13 2 -7 2 -19 0 -25z
m2009 -20 l29 -33 -32 29 c-31 28 -38 36 -30 36 2 0 16 -15 33 -32z m-1987
-48 c0 -9 -4 -8 -9 5 -5 11 -9 27 -9 35 0 9 4 8 9 -5 5 -11 9 -27 9 -35z
m2369 -99 c77 -20 100 -31 65 -31 -11 0 -46 -9 -78 -20 -58 -20 -122 -24 -180
-11 l-30 7 60 36 c33 20 67 37 75 37 8 0 48 -8 88 -18z m-271 -123 c-3 -7 -5
-2 -5 12 0 14 2 19 5 13 2 -7 2 -19 0 -25z m13 -33 c0 -8 -2 -15 -4 -15 -2 0
-6 7 -10 15 -3 8 -1 15 4 15 6 0 10 -7 10 -15z m-1975 -37 c16 -24 22 -38 14
-31 -15 12 -53 73 -46 73 2 0 17 -19 32 -42z m1535 -26 c0 -4 -9 7 -20 23 -11
17 -20 35 -20 40 0 6 9 -5 20 -23 11 -18 20 -36 20 -40z m-1280 30 c0 -9 -5
-24 -10 -32 -7 -11 -10 -5 -10 23 0 23 4 36 10 32 6 -3 10 -14 10 -23z m1299
-111 c1 -48 -5 -35 -12 24 -4 32 -3 43 3 30 5 -11 9 -35 9 -54z m-1318 -14
c-8 -8 -11 -1 -11 24 0 46 14 60 18 19 2 -18 -1 -37 -7 -43z m2109 12 c72 -17
132 -34 135 -39 2 -4 -29 -10 -70 -12 -60 -4 -90 -12 -146 -40 l-71 -35 -59
40 c-33 23 -59 43 -59 46 0 8 113 70 128 71 7 0 71 -14 142 -31z m-2271 -59
c0 -9 -4 -8 -9 5 -5 11 -9 27 -9 35 0 9 4 8 9 -5 5 -11 9 -27 9 -35z m161 -2
c0 -13 -5 -30 -10 -38 -7 -11 -10 -5 -10 23 0 20 5 37 10 37 6 0 10 -10 10
-22z m1855 -70 c5 -5 5 -8 -2 -8 -11 0 -73 56 -73 67 0 4 15 -6 33 -23 17 -16
36 -32 42 -36z m-2008 -5 c-3 -10 -5 -4 -5 12 0 17 2 24 5 18 2 -7 2 -21 0
-30z m1470 -45 c-2 -13 -4 -3 -4 22 0 25 2 35 4 23 2 -13 2 -33 0 -45z m-1327
22 c0 -16 -4 -30 -10 -30 -11 0 -14 43 -3 53 11 12 13 8 13 -23z m-153 -47
c-3 -10 -5 -4 -5 12 0 17 2 24 5 18 2 -7 2 -21 0 -30z m1490 -35 c-3 -8 -6 -5
-6 6 -1 11 2 17 5 13 3 -3 4 -12 1 -19z m-1918 -80 c43 -93 114 -164 360 -358
319 -252 481 -390 656 -560 389 -379 641 -544 1135 -741 608 -242 1149 -368
1655 -385 399 -14 678 44 804 166 22 22 45 40 51 40 5 0 17 -11 26 -25 13 -20
18 -55 20 -149 l4 -123 -88 -41 c-226 -107 -475 -152 -836 -152 -570 0 -1193
91 -1648 240 -67 22 -122 40 -124 40 -2 0 -5 -19 -7 -42 l-4 -43 -1 46 -2 45
-68 27 c-37 14 -99 41 -137 59 -39 18 -75 33 -81 33 -6 0 -18 5 -25 11 -15 12
-128 74 -134 74 -2 0 -6 -8 -8 -17 -4 -14 -5 -14 -6 3 -1 15 -19 33 -62 58
-33 20 -62 36 -64 36 -2 0 -6 -21 -8 -47 l-3 -48 -2 52 c-2 49 -4 52 -52 87
-28 20 -57 36 -65 36 -8 0 -15 4 -15 9 0 10 -61 59 -79 63 -7 2 -33 23 -58 47
-42 40 -47 43 -54 25 -7 -17 -8 -16 -8 6 -1 22 -65 100 -82 100 -4 0 -10 -15
-12 -32 -3 -24 -4 -21 -4 11 1 41 -3 48 -42 80 -24 20 -71 60 -105 89 -33 28
-66 52 -72 52 -7 0 -14 6 -17 13 -2 6 -25 27 -50 45 l-46 32 -4 -32 c-4 -33
-4 -33 -5 4 -2 33 -9 42 -54 76 l-53 39 -6 -36 -6 -36 -2 42 c-1 37 -6 44 -51
77 -28 20 -55 36 -60 36 -6 0 -10 4 -10 8 0 7 -164 128 -245 182 -45 30 -121
85 -177 127 -31 24 -59 43 -62 43 -2 0 -7 -8 -9 -17 -2 -10 -3 -8 -2 5 1 14
-9 35 -26 53 -62 67 -79 92 -79 118 0 15 16 90 36 166 19 77 39 160 44 185 4
25 13 58 20 75 13 33 57 95 68 95 4 0 22 -33 41 -72z m418 -10 c-2 -13 -4 -3
-4 22 0 25 2 35 4 23 2 -13 2 -33 0 -45z m1532 -23 c0 -5 -4 -3 -9 5 -5 8 -9
22 -9 30 0 16 17 -16 18 -35z m854 18 c37 -3 67 -9 67 -12 0 -3 -20 -14 -45
-25 -34 -13 -57 -16 -90 -11 -25 3 -45 10 -45 15 0 5 -3 15 -6 24 -7 18 10 20
119 9z m-169 -45 c3 -24 9 -54 12 -67 5 -16 3 -22 -3 -18 -6 4 -14 24 -18 44
-3 21 -9 48 -12 61 -3 12 -1 22 5 22 5 0 12 -19 16 -42z m-634 -63 c14 -19 14
-19 -2 -6 -10 7 -18 18 -18 24 0 6 1 8 3 6 1 -2 9 -13 17 -24z m-1593 -137
c-2 -29 -3 -8 -3 47 0 55 1 79 3 53 2 -26 2 -71 0 -100z m2633 21 c57 -8 78
-14 65 -19 -11 -4 -45 -17 -75 -30 -30 -12 -77 -30 -103 -40 l-48 -19 -35 31
c-19 17 -31 34 -27 38 21 20 109 59 123 55 8 -2 53 -9 100 -16z m-255 -103
c17 -13 28 -27 25 -29 -3 -3 -21 8 -40 24 -19 15 -30 29 -25 29 6 0 24 -11 40
-24z m784 -194 c46 -50 166 -146 241 -193 47 -28 87 -55 90 -58 28 -34 244
-220 308 -266 46 -32 103 -80 127 -106 42 -45 45 -52 45 -101 0 -63 -16 -91
-70 -118 -101 -52 -431 -70 -651 -36 -138 21 -464 110 -708 193 -290 98 -371
101 -540 23 -97 -44 -113 -47 -131 -25 -11 13 -6 22 32 58 25 23 92 76 149
117 57 41 128 100 159 130 50 49 59 55 105 58 114 7 215 51 278 121 40 44 53
90 44 156 l-6 44 42 5 c77 11 120 13 296 14 155 2 175 0 190 -16z m-557 -90
c0 -37 -17 -67 -64 -111 -33 -31 -123 -71 -156 -70 -9 0 9 8 41 19 66 21 120
59 148 104 16 25 19 42 15 86 -4 44 -3 50 5 30 6 -14 11 -40 11 -58z m-242
-182 c0 -5 -24 -10 -53 -10 -83 0 -201 -35 -304 -90 -99 -53 -125 -61 -45 -14
118 71 208 103 317 113 44 5 81 9 83 10 1 0 2 -3 2 -9z m-2643 -22 c-3 -8 -6
-5 -6 6 -1 11 2 17 5 13 3 -3 4 -12 1 -19z m130 -100 c-3 -8 -6 -5 -6 6 -1 11
2 17 5 13 3 -3 4 -12 1 -19z m2053 -33 c0 -2 -10 -9 -22 -15 -22 -11 -22 -10
-4 4 21 17 26 19 26 11z m-1913 -37 c-3 -8 -6 -5 -6 6 -1 11 2 17 5 13 3 -3 4
-12 1 -19z m1858 2 c-3 -5 -12 -10 -18 -10 -7 0 -6 4 3 10 19 12 23 12 15 0z
m-1508 -277 c-3 -10 -5 -4 -5 12 0 17 2 24 5 18 2 -7 2 -21 0 -30z m3158 -443
c8 -12 -40 -24 -62 -16 -15 6 -15 8 -3 16 20 13 57 13 65 0z m-2628 -32 c-3
-7 -5 -2 -5 12 0 14 2 19 5 13 2 -7 2 -19 0 -25z"/>
<path d="M1435 6271 c-6 -11 9 -23 19 -14 9 9 7 23 -3 23 -6 0 -12 -4 -16 -9z"/>
<path d="M1625 6127 c-4 -10 -5 -21 -1 -24 10 -10 18 4 13 24 -4 17 -4 17 -12
0z"/>
<path d="M1805 5981 c-6 -11 9 -23 19 -14 9 9 7 23 -3 23 -6 0 -12 -4 -16 -9z"/>
<path d="M1990 5824 c0 -8 5 -12 10 -9 6 3 10 10 10 16 0 5 -4 9 -10 9 -5 0
-10 -7 -10 -16z"/>
<path d="M2170 5674 c0 -8 5 -12 10 -9 6 3 10 10 10 16 0 5 -4 9 -10 9 -5 0
-10 -7 -10 -16z"/>
<path d="M2335 5519 c-4 -6 -5 -13 -2 -16 7 -7 27 6 27 18 0 12 -17 12 -25 -2z"/>
<path d="M2505 5360 c-4 -6 -3 -16 3 -22 6 -6 12 -6 17 2 4 6 3 16 -3 22 -6 6
-12 6 -17 -2z"/>
<path d="M2687 5206 c-3 -8 -2 -18 3 -21 13 -8 24 15 12 27 -6 6 -11 4 -15 -6z"/>
<path d="M2875 5061 c-6 -11 9 -23 19 -14 9 9 7 23 -3 23 -6 0 -12 -4 -16 -9z"/>
<path d="M3070 4924 c0 -9 5 -14 12 -12 18 6 21 28 4 28 -9 0 -16 -7 -16 -16z"/>
<path d="M3280 4815 c0 -8 5 -15 10 -15 6 0 10 7 10 15 0 8 -4 15 -10 15 -5 0
-10 -7 -10 -15z"/>
<path d="M3495 4721 c-6 -11 9 -23 19 -14 9 9 7 23 -3 23 -6 0 -12 -4 -16 -9z"/>
<path d="M3720 4634 c0 -8 5 -12 10 -9 6 3 10 10 10 16 0 5 -4 9 -10 9 -5 0
-10 -7 -10 -16z"/>
<path d="M3940 4565 c0 -8 5 -15 10 -15 6 0 10 7 10 15 0 8 -4 15 -10 15 -5 0
-10 -7 -10 -15z"/>
<path d="M4165 4501 c-6 -11 9 -23 19 -14 9 9 7 23 -3 23 -6 0 -12 -4 -16 -9z"/>
<path d="M6022 4479 c2 -7 10 -15 17 -17 8 -3 12 1 9 9 -2 7 -10 15 -17 17 -8
3 -12 -1 -9 -9z"/>
<path d="M4392 4439 c2 -6 8 -10 13 -10 5 0 11 4 13 10 2 6 -4 11 -13 11 -9 0
-15 -5 -13 -11z"/>
<path d="M5800 4394 c0 -8 5 -12 10 -9 6 3 10 10 10 16 0 5 -4 9 -10 9 -5 0
-10 -7 -10 -16z"/>
<path d="M4625 4391 c-6 -11 9 -23 19 -14 9 9 7 23 -3 23 -6 0 -12 -4 -16 -9z"/>
<path d="M4860 4355 c0 -8 5 -15 10 -15 6 0 10 7 10 15 0 8 -4 15 -10 15 -5 0
-10 -7 -10 -15z"/>
<path d="M5562 4359 c2 -6 8 -10 13 -10 5 0 11 4 13 10 2 6 -4 11 -13 11 -9 0
-15 -5 -13 -11z"/>
<path d="M5096 4353 c-11 -11 -6 -23 9 -23 8 0 15 4 15 9 0 13 -16 22 -24 14z"/>
<path d="M5330 4345 c0 -8 5 -15 10 -15 6 0 10 7 10 15 0 8 -4 15 -10 15 -5 0
-10 -7 -10 -15z"/>
<path d="M5265 5760 c-3 -5 -1 -10 4 -10 6 0 11 5 11 10 0 6 -2 10 -4 10 -3 0
-8 -4 -11 -10z"/>
<path d="M4678 5648 c9 -9 15 -9 24 0 9 9 7 12 -12 12 -19 0 -21 -3 -12 -12z"/>
<path d="M4530 5620 c0 -5 7 -10 15 -10 8 0 15 5 15 10 0 6 -7 10 -15 10 -8 0
-15 -4 -15 -10z"/>
<path d="M4955 5600 c-3 -5 -1 -10 4 -10 6 0 11 5 11 10 0 6 -2 10 -4 10 -3 0
-8 -4 -11 -10z"/>
<path d="M4400 5580 c0 -5 9 -10 20 -10 11 0 20 5 20 10 0 6 -9 10 -20 10 -11
0 -20 -4 -20 -10z"/>
<path d="M4818 5563 c6 -2 18 -2 25 0 6 3 1 5 -13 5 -14 0 -19 -2 -12 -5z"/>
<path d="M4240 5520 c0 -5 9 -10 20 -10 11 0 20 5 20 10 0 6 -9 10 -20 10 -11
0 -20 -4 -20 -10z"/>
<path d="M4665 5520 c-4 -6 3 -10 14 -10 25 0 27 6 6 13 -8 4 -17 2 -20 -3z"/>
<path d="M4765 5480 c-3 -5 1 -10 10 -10 9 0 13 5 10 10 -3 6 -8 10 -10 10 -2
0 -7 -4 -10 -10z"/>
<path d="M4950 5476 c0 -2 7 -6 15 -10 8 -3 15 -1 15 4 0 6 -7 10 -15 10 -8 0
-15 -2 -15 -4z"/>
<path d="M4520 5460 c19 -13 30 -13 30 0 0 6 -10 10 -22 10 -19 0 -20 -2 -8
-10z"/>
<path d="M4728 5393 c6 -2 18 -2 25 0 6 3 1 5 -13 5 -14 0 -19 -2 -12 -5z"/>
<path d="M4940 5390 c0 -5 7 -10 15 -10 8 0 15 5 15 10 0 6 -7 10 -15 10 -8 0
-15 -4 -15 -10z"/>
<path d="M5180 5330 c-13 -8 -12 -10 3 -10 9 0 17 5 17 10 0 12 -1 12 -20 0z"/>
<path d="M4920 5310 c0 -5 9 -10 21 -10 11 0 17 5 14 10 -3 6 -13 10 -21 10
-8 0 -14 -4 -14 -10z"/>
<path d="M5308 5293 c6 -2 18 -2 25 0 6 3 1 5 -13 5 -14 0 -19 -2 -12 -5z"/>
<path d="M5178 5223 c6 -2 18 -2 25 0 6 3 1 5 -13 5 -14 0 -19 -2 -12 -5z"/>
<path d="M5360 5180 c0 -5 4 -10 9 -10 6 0 13 5 16 10 3 6 -1 10 -9 10 -9 0
-16 -4 -16 -10z"/>
<path d="M2230 3863 c-92 -15 -181 -68 -221 -132 -39 -61 -41 -140 -4 -176 30
-31 62 -32 140 -4 45 16 74 20 119 16 94 -8 86 -23 -11 -23 -108 1 -149 -19
-184 -90 -42 -88 -10 -160 84 -185 148 -40 306 89 307 249 0 46 -4 58 -29 82
-41 41 -73 47 -111 20 -44 -31 -92 -43 -126 -30 -16 6 -32 16 -35 22 -5 7 -18
3 -38 -11 -41 -30 -40 -13 7 73 38 71 72 104 52 51 -5 -14 -10 -37 -10 -50 0
-22 2 -22 42 -13 24 5 63 8 88 6 42 -2 46 -1 62 32 27 53 23 96 -11 131 -16
16 -38 29 -49 29 -11 0 -26 2 -34 4 -7 2 -24 1 -38 -1z"/>
<path d="M3242 3817 c-83 -31 -143 -111 -167 -223 -18 -84 -19 -136 -4 -206
29 -134 188 -189 330 -112 65 36 91 73 97 140 4 45 1 56 -20 77 -14 14 -42 27
-66 31 -43 6 -151 -6 -197 -24 -15 -6 -35 -10 -46 -10 -35 0 -11 17 39 30 60
14 112 45 112 65 0 17 -56 45 -90 45 -11 0 -20 4 -20 9 0 5 49 9 110 9 135 2
180 17 180 60 0 88 -146 149 -258 109z"/>
<path d="M4946 3815 c-106 -37 -176 -173 -176 -338 0 -87 16 -136 59 -178 120
-120 381 -35 381 124 0 101 -117 129 -302 73 -36 -11 -48 -12 -48 -3 0 7 27
20 61 30 130 38 146 82 36 102 -68 13 -38 23 69 24 115 1 139 5 167 29 38 34
5 100 -67 133 -48 22 -125 24 -180 4z"/>
<path d="M3784 3801 c-60 -37 -138 -151 -174 -256 -24 -71 -27 -183 -5 -225
19 -36 52 -60 84 -60 37 0 103 75 130 148 13 35 27 65 32 67 4 3 13 -20 19
-51 21 -101 90 -136 150 -76 39 39 54 101 46 191 -16 198 -163 335 -282 262z
m99 -163 c-9 -75 -15 -98 -23 -93 -8 5 -5 79 6 113 8 26 20 11 17 -20z"/>
<path d="M4268 3796 c-97 -66 -175 -378 -120 -486 31 -62 99 -64 138 -5 9 14
21 57 27 95 6 39 14 70 18 70 3 0 9 -28 11 -63 6 -74 36 -138 73 -155 91 -42
216 25 260 141 21 57 17 85 -18 111 -38 28 -166 35 -233 12 -56 -19 -54 -19
-54 -7 0 5 30 21 68 36 82 33 154 77 187 117 48 56 21 149 -39 134 -40 -10
-113 -83 -171 -170 -50 -75 -74 -96 -60 -53 28 90 35 127 31 160 -8 72 -63
101 -118 63z"/>
<path d="M5503 3806 c-93 -30 -159 -91 -189 -178 -27 -76 -27 -257 0 -311 55
-110 158 -52 142 80 -3 29 -2 53 3 53 4 0 19 -28 31 -62 14 -39 37 -77 60
-100 33 -33 44 -38 84 -38 56 0 94 18 130 60 47 57 29 145 -37 182 -12 7 -62
15 -112 18 -95 6 -95 9 0 35 144 40 204 193 101 256 -37 23 -148 25 -213 5z
m2 -173 c-8 -67 -25 -95 -25 -41 0 50 11 98 22 98 6 0 7 -23 3 -57z"/>
<path d="M2773 3795 c-52 -36 -49 -128 6 -269 34 -85 35 -86 22 -86 -4 0 -25
40 -45 89 -78 189 -163 252 -211 156 -17 -34 -20 -59 -19 -170 0 -111 3 -139
23 -188 23 -60 43 -77 85 -77 54 0 73 91 40 199 -8 29 -13 58 -11 64 5 13 4
15 37 -75 66 -179 181 -228 251 -105 32 57 40 215 14 303 -40 142 -122 208
-192 159z"/>
<path d="M2216 3641 c-38 -8 -44 -27 -11 -35 24 -6 115 24 115 38 0 8 -66 6
-104 -3z"/>
<path d="M4960 3059 c-147 -28 -256 -146 -235 -256 13 -73 63 -89 165 -53 57
20 106 24 159 14 57 -12 32 -23 -41 -17 -63 4 -79 1 -118 -19 -77 -40 -115
-147 -74 -207 20 -28 88 -60 130 -61 51 0 132 29 170 62 107 94 125 256 34
303 -38 20 -44 19 -88 -9 -56 -36 -96 -42 -137 -17 l-34 20 -25 -20 c-35 -27
-33 -13 11 76 38 76 61 98 48 48 -3 -16 -9 -39 -12 -52 -5 -21 -3 -23 13 -16
10 4 53 9 94 11 l75 3 19 42 c15 36 16 48 7 81 -18 60 -73 83 -161 67z"/>
<path d="M3239 3003 c-98 -50 -152 -165 -152 -323 0 -131 34 -193 122 -225
125 -44 281 23 310 132 14 51 -4 104 -41 124 -34 19 -162 14 -236 -9 -34 -11
-64 -16 -67 -12 -7 11 0 15 67 34 32 9 69 27 84 39 25 21 25 24 10 39 -9 9
-36 20 -61 24 -77 11 -49 21 61 22 154 2 208 26 185 84 -35 90 -175 125 -282
71z"/>
<path d="M3798 2995 c-65 -44 -140 -165 -173 -279 -22 -77 -17 -175 11 -213
63 -85 155 -33 210 116 29 77 36 77 49 -1 17 -104 119 -131 170 -45 30 50 32
169 6 257 -23 76 -77 147 -132 176 -43 22 -99 18 -141 -11z m106 -177 c-7 -64
-12 -83 -21 -74 -8 7 -5 79 3 109 11 37 23 14 18 -35z"/>
<path d="M4293 2989 c-100 -39 -159 -151 -121 -234 17 -38 51 -42 110 -11 28
15 53 24 55 22 3 -2 0 -37 -6 -76 -25 -161 24 -234 142 -208 102 21 177 131
185 269 6 96 -13 154 -64 198 -67 60 -203 78 -301 40z m163 -271 c-8 -64 -12
-76 -22 -65 -10 10 7 127 18 127 7 0 8 -22 4 -62z"/>
<path d="M2865 2986 c-66 -29 -97 -95 -97 -208 0 -43 -4 -78 -8 -78 -4 0 -13
34 -19 75 -20 121 -88 227 -134 209 -73 -28 -57 -263 29 -442 39 -80 55 -93
84 -67 14 13 40 90 40 120 0 3 -11 5 -24 5 -50 0 -34 17 21 24 59 7 95 -6 49
-18 -29 -7 -31 -21 -15 -81 22 -81 68 -98 115 -43 79 95 131 363 90 463 -23
54 -69 68 -131 41z"/>
<path d="M4962 2840 c-45 -11 -49 -18 -18 -29 25 -10 34 -9 89 11 61 23 7 37
-71 18z"/>
</g>
</svg>
